<svg width="213" height="57" viewBox="0 0 213 57" fill="none" xmlns="http://www.w3.org/2000/svg">
<g id="Group 40">
<circle id="Ellipse 8" cx="28.5" cy="28.5" r="28.5" fill="#EDFFEF"/>
<ellipse id="Ellipse 9" cx="105" cy="28.5" rx="29" ry="28.5" fill="#EDFFEF"/>
<ellipse id="Ellipse 10" cx="184" cy="28.5" rx="29" ry="28.5" fill="#EDFFEF"/>
<g id="&#240;&#159;&#166;&#134; icon &#34;youtube&#34;">
<path id="Vector" d="M187.2 28.5855L182.475 31.2855V25.8855L187.2 28.5855Z" fill="#484848" stroke="#484848" stroke-width="2.5" stroke-linecap="round" stroke-linejoin="round"/>
<path id="Vector_2" d="M171 29.5403V27.6299C171 23.7212 171 21.7668 172.222 20.5093C173.445 19.2518 175.369 19.1974 179.218 19.0885C181.042 19.037 182.905 19 184.5 19C186.095 19 187.958 19.037 189.782 19.0885C193.631 19.1974 195.555 19.2518 196.778 20.5093C198 21.7668 198 23.7212 198 27.6299V29.5403C198 33.4489 198 35.4033 196.778 36.6607C195.555 37.9182 193.631 37.9726 189.782 38.0816C187.958 38.1331 186.095 38.1701 184.5 38.1701C182.905 38.1701 181.042 38.1331 179.218 38.0816C175.369 37.9726 173.445 37.9182 172.222 36.6607C171 35.4033 171 33.4489 171 29.5403Z" stroke="#484848" stroke-width="2.5"/>
</g>
<g id="&#240;&#159;&#166;&#134; icon &#34;instagram&#34;">
<path id="Vector_3" d="M28 33.8891C30.7 33.8891 32.8889 31.7002 32.8889 29.0002C32.8889 26.3002 30.7 24.1113 28 24.1113C25.3 24.1113 23.1111 26.3002 23.1111 29.0002C23.1111 31.7002 25.3 33.8891 28 33.8891Z" stroke="#484848" stroke-width="2.5" stroke-linecap="round" stroke-linejoin="round"/>
<path id="Vector_4" d="M17 33.8889V24.1111C17 20.736 19.736 18 23.1111 18H32.8889C36.2639 18 39 20.736 39 24.1111V33.8889C39 37.2639 36.2639 40 32.8889 40H23.1111C19.736 40 17 37.2639 17 33.8889Z" stroke="#484848" stroke-width="2.5"/>
<path id="Vector_5" d="M34.7222 22.2907L34.7351 22.2764" stroke="#484848" stroke-width="2.5" stroke-linecap="round" stroke-linejoin="round"/>
</g>
<g id="&#240;&#159;&#166;&#134; icon &#34;twitter&#34;">
<path id="Vector_6" d="M118 18.0119C118 18.0119 115.615 19.4207 114.289 19.8201C113.577 19.0017 112.631 18.4216 111.579 18.1583C110.527 17.8951 109.419 17.9613 108.406 18.3481C107.393 18.7348 106.523 19.4235 105.914 20.3208C105.304 21.2182 104.985 22.281 105 23.3655V24.5473C102.923 24.6012 100.865 24.1406 99.0094 23.2065C97.1536 22.2724 95.5577 20.8939 94.3636 19.1937C94.3636 19.1937 89.6364 29.8301 100.273 34.5574C97.8388 36.2095 94.9394 37.0379 92 36.921C102.636 42.8301 115.636 36.921 115.636 23.3301C115.635 23.0009 115.604 22.6725 115.542 22.3492C116.748 21.1596 118 18.0119 118 18.0119Z" stroke="#484848" stroke-width="2.5" stroke-linecap="round" stroke-linejoin="round"/>
</g>
</g>
</svg>
